<?xml version="1.0" encoding="UTF-8"?>
<svg width="22px" height="14px" viewBox="0 0 22 14" version="1.1" xmlns="http://www.w3.org/2000/svg" xmlns:xlink="http://www.w3.org/1999/xlink">
    <title>behance-logo</title>
    <g id="Page-1" stroke="none" stroke-width="1" fill="none" fill-rule="evenodd">
        <g id="Technoli-Media---Landing-page" transform="translate(-167.000000, -1076.000000)" fill="#FFFFFF">
            <g id="social-link" transform="translate(167.328431, 1030.250000)">
                <g id="behance-logo" transform="translate(0.000012, 46.221436)">
                    <path d="M18.564644,7.04003788 C18.5186082,6.39072701 18.300153,5.89946526 17.9069458,5.56375552 C17.5168691,5.2271322 17.0296261,5.05799832 16.4482246,5.05799832 C15.8154472,5.05799832 15.3267924,5.2387651 14.9796211,5.5937209 C14.6299945,5.94825036 14.4125214,6.43001089 14.3235802,7.04003788 L18.564644,7.04003788 Z M21.0373805,6.79659959 C21.101401,7.22317997 21.1301887,7.84222093 21.1186491,8.65116446 L14.264593,8.65116446 C14.3024651,9.58995799 14.6290738,10.2463948 15.2484088,10.6220584 C15.621974,10.8578226 16.0748436,10.9726899 16.6052374,10.9726899 C17.164419,10.9726899 17.6201734,10.8326078 17.9709663,10.5442215 C18.1622911,10.3912275 18.3308435,10.1754402 18.4766236,9.9032546 L20.9887053,9.9032546 C20.9230276,10.4576142 20.6204189,11.0200133 20.0768895,11.5914872 C19.2348026,12.499889 18.053708,12.9552167 16.5366748,12.9552167 C15.283396,12.9552167 14.1790278,12.5710264 13.2204395,11.8056301 C12.2649204,11.0376149 11.7851659,9.79198071 11.7851659,8.06397695 C11.7851659,6.44359276 12.2159997,5.20307463 13.0803679,4.33998632 C13.9481122,3.47488815 15.0678257,3.04453165 16.4482246,3.04453165 C17.2663116,3.04453165 18.0037438,3.18966886 18.6617489,3.48134411 C19.3177898,3.77326297 19.8596619,4.23291489 20.28669,4.86456324 C20.6729611,5.4208109 20.9215544,6.06384853 21.0373805,6.79659959 L21.0373805,6.79659959 Z M8.00182076,8.91805127 C8.00182076,8.24048036 7.72272102,7.7723017 7.16574917,7.52106755 C6.85454713,7.37830564 6.41505865,7.30528024 5.85158041,7.3001033 L3.03093598,7.3001033 L3.03093598,10.7752351 L5.80793847,10.7752351 C6.3785983,10.7752351 6.82023511,10.7009916 7.13892564,10.5463531 C7.71363662,10.2622911 8.00182076,9.72126971 8.00182076,8.91805127 L8.00182076,8.91805127 Z M3.03093598,5.14101218 L5.81180547,5.14101218 C6.3831405,5.14101218 6.84521721,5.03320988 7.20098191,4.81790982 C7.55656246,4.60285338 7.73401514,4.22030751 7.73401514,3.67142939 C7.73401514,3.06475219 7.49904839,2.66222939 7.02813281,2.46830708 C6.62338601,2.33364557 6.10526838,2.2643963 5.47684896,2.2643963 L3.03093598,2.2643963 L3.03093598,5.14101218 Z M10.2585573,7.19418907 C10.5999588,7.71900961 10.7706596,8.35613943 10.7706596,9.10417772 C10.7706596,9.87779621 10.578414,10.5718115 10.1868642,11.1848838 C9.93796393,11.5905127 9.62866471,11.9333484 9.25724784,12.2091274 C8.83887445,12.5281491 8.34352919,12.7470425 7.7740356,12.8638588 C7.2029461,12.9809187 6.58453179,13.0401795 5.9187313,13.0401795 L0,13.0401795 L0,0 L6.34668014,0 C7.94670056,0.0258847314 9.08077725,0.485780276 9.75050614,1.38888333 C10.1523066,1.94299929 10.351611,2.6077192 10.351611,3.38024139 C10.351611,4.17749112 10.1499128,4.8152909 9.74424527,5.30015759 C9.51836292,5.57185592 9.18487955,5.81907033 8.74342688,6.04198354 C9.41217366,6.28487368 9.91948823,6.66741956 10.2585573,7.19418907 L10.2585573,7.19418907 Z M19.0739228,1.84542908 L13.7817081,1.84542908 L13.7817081,0.541021338 L19.0744138,0.541021338 L19.0744138,1.84542908 L19.0739228,1.84542908 Z" id="Fill-1"></path>
                </g>
            </g>
        </g>
    </g>
</svg>