<?xml version="1.0" encoding="UTF-8"?>
<svg width="22px" height="22px" viewBox="0 0 22 22" version="1.1" xmlns="http://www.w3.org/2000/svg" xmlns:xlink="http://www.w3.org/1999/xlink">
    <title>dribbble-logo</title>
    <g id="Page-1" stroke="none" stroke-width="1" fill="none" fill-rule="evenodd">
        <g id="Technoli-Media---Landing-page" transform="translate(-167.000000, -1030.000000)" fill="#FF478B">
            <g id="social-link" transform="translate(167.328431, 1030.250000)">
                <g id="dribbble-logo" transform="translate(0.000000, 0.281635)">
                    <path d="M15.7709643,17.5633506 C15.3760937,15.4773884 14.7871055,13.5158191 14.1060702,11.7226284 C15.7808466,11.4424643 17.5119525,11.5004582 19.2899289,11.8966104 C18.9066348,14.2151088 17.6062584,16.2303295 15.7709643,17.5633506 M5.01614104,17.3231098 C5.62503515,16.5626042 6.8647057,15.1781731 8.65750565,13.9633813 C9.87571739,13.1375975 11.1358585,12.5241781 12.4334114,12.1214421 C13.1861644,14.0575165 13.8292232,16.19699 14.2125173,18.4689812 C13.0958114,18.9739771 11.8565644,19.2580635 10.5512468,19.2580635 C8.45844683,19.2580635 6.53378806,18.5324384 5.01614104,17.3231098 M1.70343525,10.1094432 L1.75312937,10.1094432 C2.82959993,10.1094432 4.8022587,10.0377212 7.1244704,9.61747498 C8.44912919,9.37793464 9.70531739,9.05504545 10.8844232,8.65497104 C11.1910585,9.26180659 11.4959997,9.90212176 11.7920467,10.5729748 C10.1415527,11.1003838 8.74969389,11.8587882 7.64668215,12.6122897 C5.79811749,13.87583 4.50282341,15.2772111 3.79581166,16.1438989 C2.4859764,14.6118212 1.6941176,12.6309206 1.6941176,10.4694542 C1.6941176,10.3485633 1.69849407,10.2287932 1.70343525,10.1094432 M6.99374099,2.42355999 C7.51327039,3.09175149 8.75124683,4.76447156 10.0808468,7.14474619 C6.73891747,8.22491907 3.49694108,8.40716585 1.9389176,8.42411578 C2.58804699,5.7324387 4.4878587,3.51900182 6.99374099,2.42355999 M16.2386819,3.73907076 C14.8831055,4.96689016 13.3119526,5.87588274 11.7033879,6.54715605 C10.522588,4.40502095 9.39317622,2.79127544 8.70494095,1.87471842 C9.30056446,1.74892471 9.9182115,1.68098491 10.5512468,1.68098491 C12.714635,1.68098491 14.6988702,2.45577887 16.2386819,3.73907076 M17.4269642,4.93789317 C18.611576,6.38466084 19.341176,8.2106307 19.4018818,10.2013371 C17.207576,9.75055296 15.2205172,9.80364406 13.4663996,10.1444638 C13.1487526,9.4079122 12.8200938,8.70540059 12.4886114,8.04211196 C14.3983055,7.22571363 16.0616466,6.18280257 17.4269642,4.93789317 M10.5512468,0 C4.7332234,0 0,4.69667183 0,10.4694542 C0,16.2423766 4.7332234,20.9390484 10.5512468,20.9390484 C16.3692702,20.9390484 21.1026347,16.2423766 21.1026347,10.4694542 C21.1026347,4.69667183 16.3692702,0 10.5512468,0" id="Fill-1"></path>
                </g>
            </g>
        </g>
    </g>
</svg>