<?xml version="1.0" encoding="UTF-8"?>
<svg width="22px" height="21px" viewBox="0 0 22 21" version="1.1" xmlns="http://www.w3.org/2000/svg" xmlns:xlink="http://www.w3.org/1999/xlink">
    <title>instagram-logo</title>
    <g id="Page-1" stroke="none" stroke-width="1" fill="none" fill-rule="evenodd">
        <g id="Technoli-Media---Landing-page" transform="translate(-167.000000, -1116.000000)" fill="#FFFFFF">
            <g id="social-link" transform="translate(167.328431, 1030.250000)">
                <g id="instagram-logo" transform="translate(0.000000, 85.781602)">
                    <path d="M19.191176,15.1296367 C19.191176,17.2872611 17.4224736,19.0424072 15.2479927,19.0424072 L5.81169535,19.0424072 C3.63721444,19.0424072 1.86851206,17.2872611 1.86851206,15.1296367 L1.86851206,5.76664345 C1.86851206,3.60901898 3.63721444,1.85402747 5.81169535,1.85402747 L15.2479927,1.85402747 C17.4224736,1.85402747 19.191176,3.60901898 19.191176,5.76664345 L19.191176,15.1296367 Z M15.2479927,0 L5.81169535,0 C2.60688574,0 0,2.58667733 0,5.76664345 L0,15.1296367 C0,18.3096028 2.60688574,20.8964346 5.81169535,20.8964346 L15.2479927,20.8964346 C18.4528023,20.8964346 21.059688,18.3091393 21.059688,15.1296367 L21.059688,5.76664345 C21.059688,2.58667733 18.4528023,0 15.2479927,0 L15.2479927,0 Z" id="Fill-1"></path>
                    <path d="M10.529844,13.9781157 C8.56821777,13.9781157 6.97157421,12.3950852 6.97157421,10.4482019 C6.97157421,8.50178202 8.56759493,6.91751555 10.529844,6.91751555 C12.4920931,6.91751555 14.0881138,8.50178202 14.0881138,10.4482019 C14.0881138,12.3950852 12.4914703,13.9781157 10.529844,13.9781157 M10.529844,5.06410609 C7.53726624,5.06410609 5.10306215,7.47944037 5.10306215,10.4482019 C5.10306215,13.4174269 7.53726624,15.8327611 10.529844,15.8327611 C13.5217989,15.8327611 15.9566259,13.4174269 15.9566259,10.4482019 C15.9566259,7.47944037 13.5217989,5.06410609 10.529844,5.06410609" id="Fill-4"></path>
                    <path d="M16.1840394,3.49195259 C15.8238837,3.49195259 15.4705792,3.63625773 15.2163058,3.88964148 C14.9603197,4.14194372 14.8136415,4.49328193 14.8136415,4.85172724 C14.8136415,5.20893653 14.9609425,5.55965673 15.2163058,5.81319499 C15.4699563,6.06534272 15.8238837,6.21088388 16.1840394,6.21088388 C16.545285,6.21088388 16.8974996,6.06534272 17.1530186,5.81319499 C17.4083819,5.55965673 17.5544373,5.20847303 17.5544373,4.85172724 C17.5544373,4.49328193 17.4083819,4.14194372 17.1530186,3.88964148 C16.8987452,3.63625773 16.545285,3.49195259 16.1840394,3.49195259" id="Fill-6"></path>
                </g>
            </g>
        </g>
    </g>
</svg>